#!OML:ASF E:\Steps\Project 1\Capture day 1\Session 2\Subject.ASF
:FULLY-SPECIFIED
:DEGREES
158
root 9.40415 16.362 10.3061 -148.359 -2.85244 179.813
lowerback -26.1343 -1.6285 -6.58538
upperback -2.75191 -0.902435 -0.638478
thorax 11.5516 -1.02626 2.68556
lowerneck 0.814344 0.218304 -4.54626
upperneck 8.87381 -0.59173 7.06434
head 2.76399 -0.423722 3.11689
rclavicle 5.96354e-016 -8.74653e-015
rhumerus -42.9875 -0.706729 -85.0668
rradius 47.4656
rwrist -5.41742
rhand -8.52196 -51.306
rfingers 7.12502
rthumb 17.4066 -80.5467
lclavicle 5.96354e-016 -8.74653e-015
lhumerus -38.2725 -13.9479 84.5884
lradius 37.1114
lwrist 1.81147
lhand -21.242 -13.8802
lfingers 7.12502
lthumb 5.14073 16.0374
rfemur -33.2154 10.6003 16.6404
rtibia 13.9991
rfoot -22.045 -7.81264
rtoes -30.7969
lfemur -35.3129 -11.5447 -14.4259
ltibia 17.6357
lfoot -12.9791 3.03479
ltoes -36.9314
159
root 9.41299 16.3579 10.3213 -147.905 -3.10014 179.908
lowerback -26.0932 -1.66352 -6.50547
upperback -2.80427 -0.988439 -0.564311
thorax 11.4781 -1.06238 2.69467
lowerneck 0.792154 0.223062 -4.56596
upperneck 8.86617 -0.581983 7.07034
head 2.76517 -0.417986 3.12301
rclavicle 7.95139e-015 -1.98785e-014
rhumerus -43.1944 -0.154373 -85.0914
rradius 48.2161
rwrist -5.76368
rhand -8.36593 -51.5149
rfingers 7.12502
rthumb 17.5567 -80.7421
lclavicle 7.95139e-015 -1.98785e-014
lhumerus -38.622 -14.6567 84.7044
lradius 37.9353
lwrist 2.15009
lhand -21.2084 -14.0096
lfingers 7.12502
lthumb 5.17317 15.9073
rfemur -34.2287 10.3408 16.8219
rtibia 14.9387
rfoot -22.4448 -7.81562
rtoes -31.1079
lfemur -36.3884 -11.677 -13.9887
ltibia 18.5395
lfoot -13.3006 3.05791
ltoes -36.8232
160
root 9.425 16.353 10.3389 -147.609 -3.32391 179.963
lowerback -25.9031 -1.69214 -6.50554
upperback -2.78107 -1.03078 -0.528714
thorax 11.4093 -1.07603 2.72358
lowerneck 0.719478 0.206139 -4.51901
upperneck 8.86486 -0.599615 7.06577
head 2.77888 -0.422549 3.11281
rclavicle -1.78906e-015 -7.15625e-015
rhumerus -43.5043 0.26121 -85.1138
rradius 49.3431
rwrist -6.12764
rhand -7.77248 -52.9986
rfingers 7.12502
rthumb 18.1277 -82.1739
lclavicle -1.78906e-015 -7.15625e-015
lhumerus -39.0136 -15.4083 84.786
lradius 38.8288
lwrist 2.35878
lhand -21.3519 -14.2124
lfingers 7.12502
lthumb 5.03454 15.7078
rfemur -35.0958 10.1994 16.9512
rtibia 15.9019
rfoot -22.7519 -7.96984
rtoes -30.9181
lfemur -37.3946 -11.8819 -13.5885
ltibia 19.5668
lfoot -13.7687 3.12225
ltoes -36.7645
161
root 9.4371 16.3449 10.3611 -147.267 -3.53759 179.954
lowerback -25.6872 -1.75358 -6.5404
upperback -2.77613 -1.11184 -0.496569
thorax 11.3098 -1.10932 2.75548
lowerneck 0.70568 0.228709 -4.57929
upperneck 8.86203 -0.564632 7.06524
head 2.77875 -0.405759 3.12487
rclavicle -9.34288e-015 -2.62396e-014
rhumerus -43.9355 0.768117 -85.1516
rradius 50.5538
rwrist -6.39787
rhand -7.50307 -53.537
rfingers 7.12502
rthumb 18.3869 -82.688
lclavicle -9.34288e-015 -2.62396e-014
lhumerus -39.294 -15.9186 84.793
lradius 39.5693
lwrist 2.48326
lhand -21.7224 -14.4397
lfingers 7.12502
lthumb 4.67684 15.4887
rfemur -36.1559 10.2151 16.9392
rtibia 17.1508
rfoot -23.1954 -8.35476
rtoes -30.7186
lfemur -38.6198 -12.0223 -13.2808
ltibia 20.8736
lfoot -14.2758 3.04695
ltoes -36.2265
162
root 9.44647 16.3309 10.3834 -146.715 -3.88707 180.023
lowerback -25.6028 -1.7814 -6.40648
upperback -2.88318 -1.21203 -0.461293
thorax 11.15 -1.14888 2.68611
lowerneck 0.777356 0.247886 -4.61599
upperneck 8.85317 -0.540902 7.06533
head 2.7612 -0.39678 3.13156
rclavicle 9.54166e-015 7.95139e-015
rhumerus -44.4465 1.14024 -85.1921
rradius 51.516
rwrist -6.42232
rhand -7.81737 -52.9277
rfingers 7.12502
rthumb 18.0846 -82.1069
lclavicle 9.54166e-015 7.95139e-015
lhumerus -39.6089 -16.4583 84.7754
lradius 40.2376
lwrist 2.72948
lhand -21.823 -14.3277
lfingers 7.12502
lthumb 4.57968 15.6028
rfemur -37.4958 10.2111 17.0104
rtibia 18.5229
rfoot -23.79 -8.78211
rtoes -31.0777
lfemur -40.1551 -11.9286 -12.9132
ltibia 22.3487
lfoot -14.6449 2.73983
ltoes -35.9154
163
root 9.45717 16.3151 10.4098 -146.125 -4.25388 180.056
lowerback -25.4636 -1.76572 -6.30746
upperback -3.00554 -1.2453 -0.482133
thorax 10.9364 -1.15717 2.59813
lowerneck 0.799285 0.219572 -4.55194
upperneck 8.84295 -0.580493 7.06516
head 2.75572 -0.414625 3.11824
rclavicle 1.31198e-014 2.78299e-014
rhumerus -44.9218 1.2679 -85.2023
rradius 52.4881
rwrist -6.46477
rhand -8.27502 -52.3965
rfingers 7.12502
rthumb 17.6442 -81.616
lclavicle 1.31198e-014 2.78299e-014
lhumerus -39.8805 -17.1962 84.7483
lradius 40.8667
lwrist 3.07344
lhand -21.7421 -13.7954
lfingers 7.12502
lthumb 4.6578 16.1334
rfemur -38.9368 10.1375 17.0317
rtibia 19.9238
rfoot -24.3799 -9.07577
rtoes -31.1534
lfemur -41.8284 -11.8537 -12.5531
ltibia 23.9857
lfoot -14.9258 2.50551
ltoes -36.3253
164
root 9.46775 16.2943 10.441 -145.534 -4.58658 180.073
lowerback -25.3128 -1.80748 -6.25296
upperback -3.085 -1.33921 -0.433608
thorax 10.7745 -1.19598 2.59329
lowerneck 0.802301 0.22397 -4.57122
upperneck 8.83944 -0.57172 7.05702
head 2.75349 -0.410325 3.11919
rclavicle 1.33186e-014 -1.59028e-014
rhumerus -45.294 1.66949 -85.1585
rradius 53.5177
rwrist -6.63502
rhand -8.55246 -52.1295
rfingers 7.12502
rthumb 17.3772 -81.3727
lclavicle 1.33186e-014 -1.59028e-014
lhumerus -40.0995 -17.699 84.7093
lradius 41.5981
lwrist 3.53208
lhand -21.5506 -13.802
lfingers 7.12502
lthumb 4.84271 16.1226
rfemur -40.5137 9.80344 17.1229
rtibia 21.5681
rfoot -25.0596 -9.07736
rtoes -30.7354
lfemur -43.6104 -11.8169 -12.2095
ltibia 25.8039
lfoot -15.3083 2.39595
ltoes -36.9369
165
root 9.47064 16.2742 10.4545 -145.581 -4.8728 180.212
lowerback -24.6567 -1.80852 -6.04685
upperback -3.00751 -1.41261 -0.31404
thorax 10.5232 -1.20204 2.59883
lowerneck 0.849517 0.260307 -4.66926
upperneck 8.84083 -0.521525 7.0502
head 2.74271 -0.389309 3.13601
rclavicle 1.45113e-014 2.22639e-014
rhumerus -45.7852 2.32476 -85.0793
rradius 54.6459
rwrist -6.79635
rhand -8.58596 -51.7342
rfingers 7.12502
rthumb 17.345 -80.9803
lclavicle 1.45113e-014 2.22639e-014
lhumerus -40.5139 -18.009 84.7269
lradius 42.5318
lwrist 3.92169
lhand -21.3061 -15.1181
lfingers 7.12502
lthumb 5.07877 14.8011
rfemur -41.2726 9.39927 17.5638
rtibia 23.1924
rfoot -25.7833 -8.93368
rtoes -30.4027
lfemur -44.4713 -11.8093 -11.9925
ltibia 27.3884
lfoot -15.7822 2.27222
ltoes -37.4521
166
root 9.4843 16.2391 10.4948 -144.853 -5.42369 180.163
lowerback -24.3232 -1.89931 -6.0354
upperback -3.2286 -1.59532 -0.224782
thorax 10.1135 -1.28351 2.64135
lowerneck 0.956094 0.285129 -4.72709
upperneck 8.83155 -0.492194 7.0533
head 2.71843 -0.379063 3.14753
rclavicle 1.07344e-014 -1.51076e-014
rhumerus -46.4744 2.71237 -85.0019
rradius 55.9645
rwrist -6.78269
rhand -8.81241 -51.0514
rfingers 7.12502
rthumb 17.127 -80.3165
lclavicle 1.07344e-014 -1.51076e-014
lhumerus -40.8935 -18.3764 84.7542
lradius 43.3076
lwrist 4.05856
lhand -21.228 -14.0951
lfingers 7.12502
lthumb 5.15425 15.8222
rfemur -43.1044 8.88921 17.706
rtibia 25.0417
rfoot -26.3329 -9.1842
rtoes -30.3082
lfemur -46.6202 -11.6781 -11.7044
ltibia 29.5041
lfoot -16.1423 1.86029
ltoes -38.1414
167
root 9.49873 16.1993 10.5321 -144.365 -5.86333 180.155
lowerback -23.8923 -1.90705 -5.9957
upperback -3.32427 -1.64887 -0.201527
thorax 9.7819 -1.29697 2.63861
lowerneck 1.05617 0.297215 -4.77685
upperneck 8.8249 -0.480223 7.06086
head 2.69742 -0.376758 3.15886
rclavicle 5.76476e-015 9.54166e-015
rhumerus -47.0306 2.93621 -84.9715
rradius 57.2361
rwrist -6.72397
rhand -9.10516 -51.0045
rfingers 7.12502
rthumb 16.8452 -80.2939
lclavicle 5.76476e-015 9.54166e-015
lhumerus -40.9968 -18.7622 84.6751
lradius 43.873
lwrist 4.13119
lhand -20.8822 -13.8712
lfingers 7.12502
lthumb 5.48808 16.0377
rfemur -44.6619 8.43893 17.9341
rtibia 26.8751
rfoot -26.9443 -9.29932
rtoes -30.4158
lfemur -48.4519 -11.3563 -11.5856
ltibia 31.6257
lfoot -16.5229 1.45063
ltoes -38.8148
168
root 9.51259 16.1544 10.5817 -143.775 -6.35104 180.115
lowerback -23.4196 -1.93277 -5.92416
upperback -3.41619 -1.73403 -0.176767
thorax 9.43512 -1.32329 2.61092
lowerneck 1.05713 0.298446 -4.81498
upperneck 8.82574 -0.475393 7.05922
head 2.69758 -0.374454 3.1657
rclavicle 1.98785e-016 1.03368e-014
rhumerus -47.4896 3.31876 -84.9703
rradius 58.567
rwrist -6.91567
rhand -9.12654 -51.3956
rfingers 7.12502
rthumb 16.8246 -80.6867
lclavicle 1.98785e-016 1.03368e-014
lhumerus -40.9895 -19.1419 84.521
lradius 44.4948
lwrist 4.21704
lhand -20.7504 -14.1846
lfingers 7.12502
lthumb 5.61538 15.721
rfemur -46.513 7.83459 18.1954
rtibia 29.058
rfoot -27.6775 -9.46026
rtoes -30.973
lfemur -50.5467 -10.9149 -11.5563
ltibia 33.8815
lfoot -16.9191 0.968129
ltoes -39.2125
169
root 9.52444 16.0991 10.6316 -143.152 -6.80075 180.154
lowerback -23.0577 -1.91727 -5.7592
upperback -3.45836 -1.77437 -0.131493
thorax 9.19777 -1.32703 2.56419
lowerneck 1.04804 0.305898 -4.83988
upperneck 8.81691 -0.459993 7.05275
head 2.69542 -0.365966 3.16845
rclavicle -4.37326e-015 -2.38542e-015
rhumerus -47.8907 3.75903 -84.9507
rradius 59.9385
rwrist -7.25406
rhand -9.31498 -51.4241
rfingers 7.12502
rthumb 16.6432 -80.7305
lclavicle -4.37326e-015 -2.38542e-015
lhumerus -40.9322 -19.5045 84.351
lradius 45.182
lwrist 4.38229
lhand -21.2063 -14.4989
lfingers 7.12502
lthumb 5.17512 15.4179
rfemur -48.532 7.31707 18.5197
rtibia 31.4521
rfoot -28.5152 -9.61864
rtoes -31.3783
lfemur -52.6468 -10.3598 -11.5325
ltibia 36.0884
lfoot -17.3074 0.486829
ltoes -39.2075
170
root 9.5418 16.0338 10.6745 -142.745 -7.33874 180.228
lowerback -22.5188 -1.90498 -5.56268
upperback -3.4951 -1.82832 -0.100885
thorax 8.87255 -1.33195 2.48388
lowerneck 1.1459 0.307294 -4.81358
upperneck 8.80576 -0.462234 7.04078
head 2.67331 -0.36877 3.15819
rclavicle -9.34288e-015 -1.90833e-014
rhumerus -48.3449 4.01119 -84.9757
rradius 61.1862
rwrist -7.33524
rhand -9.52764 -51.032
rfingers 7.12502
rthumb 16.4385 -80.3555
lclavicle -9.34288e-015 -1.90833e-014
lhumerus -40.9934 -19.8823 84.1236
lradius 45.8456
lwrist 4.7375
lhand -21.4055 -14.4196
lfingers 7.12502
lthumb 4.98279 15.5018
rfemur -50.2932 6.92851 18.9225
rtibia 33.8482
rfoot -29.5769 -9.63293
rtoes -30.8534
lfemur -54.4085 -9.69376 -11.6194
ltibia 38.1919
lfoot -17.6433 -0.188247
ltoes -38.3349
171
root 9.56248 15.9601 10.716 -142.546 -7.90769 180.246
lowerback -21.6542 -1.9272 -5.39253
upperback -3.54151 -1.92968 -0.0971194
thorax 8.36679 -1.35379 2.38493
lowerneck 1.22541 0.303552 -4.80467
upperneck 8.81051 -0.472244 7.03485
head 2.66076 -0.375695 3.15364
rclavicle -1.13307e-014 3.18055e-015
rhumerus -48.9117 4.30807 -85.0839
rradius 62.5069
rwrist -7.32389
rhand -9.43959 -51.0808
rfingers 7.12502
rthumb 16.5232 -80.3973
lclavicle -1.13307e-014 3.18055e-015
lhumerus -41.1363 -20.0999 83.8437
lradius 46.5061
lwrist 4.93539
lhand -21.1863 -14.3471
lfingers 7.12502
lthumb 5.19442 15.5692
rfemur -51.7316 6.46652 19.3736
rtibia 36.1032
rfoot -30.5307 -9.73006
rtoes -30.8074
lfemur -55.9545 -8.92026 -11.9667
ltibia 40.264
lfoot -17.7917 -0.954858
ltoes -36.5385
172
root 9.58189 15.8799 10.7617 -142.331 -8.3959 180.205
lowerback -20.8596 -1.93402 -5.28013
upperback -3.50911 -1.97845 -0.108315
thorax 7.98078 -1.35299 2.31667
lowerneck 1.28814 0.309706 -4.88647
upperneck 8.81963 -0.467268 7.05146
head 2.65293 -0.376514 3.17473
rclavicle -1.96797e-014 -2.38542e-014
rhumerus -49.3636 4.71264 -85.1815
rradius 63.8664
rwrist -7.44976
rhand -9.51712 -51.4472
rfingers 7.12502
rthumb 16.4486 -80.7699
lclavicle -1.96797e-014 -2.38542e-014
lhumerus -41.0316 -20.1502 83.5605
lradius 47.0762
lwrist 4.75216
lhand -21.2148 -14.8713
lfingers 7.12502
lthumb 5.16699 15.0457
rfemur -53.1554 6.00066 19.735
rtibia 38.2847
rfoot -31.332 -10.1049
rtoes -31.4163
lfemur -57.6442 -8.14807 -12.4702
ltibia 42.5472
lfoot -17.9491 -1.61901
ltoes -33.9512
